<svg width="125" height="125" viewBox="0 0 125 125" fill="none" xmlns="http://www.w3.org/2000/svg">
<g clip-path="url(#clip0)">
<path d="M74.7193 13.7814C71.7983 9.53638 69.221 5.63099 66.8155 2.06521C66.4719 1.55581 65.9564 1.04641 65.4409 0.70681C63.3791 -0.651586 60.63 0.0276113 59.2554 2.06521C57.0217 5.63099 54.4444 9.36658 51.3516 13.7814C37.7778 33.4781 17.5029 63.193 17.5029 80.173C17.5029 92.5683 22.6576 103.775 30.905 111.925C39.1524 119.906 50.4925 125 63.0355 125C75.5784 125 86.9185 119.906 95.166 111.756C103.413 103.605 108.568 92.3985 108.568 80.0032C108.568 63.0232 88.2931 33.4781 74.7193 13.7814ZM88.9804 105.643C82.2794 112.265 73.1729 116.17 63.0355 116.17C52.898 116.17 43.7915 112.095 37.0905 105.643C30.3895 99.0207 26.4376 90.0213 26.4376 80.0032C26.4376 65.74 45.8534 37.3835 58.7399 18.5358C60.2863 16.3284 61.6609 14.121 63.0355 12.2532C64.41 14.121 65.7846 16.3284 67.331 18.5358C80.2175 37.5533 99.6333 65.74 99.6333 80.0032C99.6333 90.0213 95.5096 99.0207 88.9804 105.643Z" fill="black"/>
<path d="M89.0313 76.9468C86.6259 76.777 84.564 78.6448 84.3922 81.022C84.2204 84.7575 83.0176 88.3233 81.1276 91.3797C79.2376 94.4361 76.4884 97.1529 73.2238 98.8509C71.162 100.039 70.3029 102.756 71.5056 104.794C72.8802 107.171 75.6293 107.85 77.6912 106.662C82.3303 104.115 86.1104 100.379 88.6877 96.1341C91.4368 91.8891 92.9832 86.7951 93.1551 81.5313C93.3269 79.1542 91.4368 77.1166 89.0313 76.9468Z" fill="black"/>
</g>
<defs>
<clipPath id="clip0">
<rect width="125" height="125" fill="white"/>
</clipPath>
</defs>
</svg>
