<svg width="116" height="115" viewBox="0 0 116 115" fill="none" xmlns="http://www.w3.org/2000/svg">
<path d="M71.1118 16.4632C70.1087 16.4632 69.296 17.2763 69.296 18.2789V25.1789H61.3067V18.2789C61.3067 17.2761 60.4938 16.4632 59.4909 16.4632C58.4878 16.4632 57.6752 17.2763 57.6752 18.2789V36.6789C57.6752 37.6818 58.4878 38.4947 59.4909 38.4947C60.494 38.4947 61.3067 37.6816 61.3067 36.6789V28.8104H69.296V36.6789C69.296 37.6818 70.1087 38.4947 71.1118 38.4947C72.1149 38.4947 72.9275 37.6816 72.9275 36.6789V18.2789C72.9275 17.2761 72.1149 16.4632 71.1118 16.4632Z" fill="black"/>
<path d="M53.6803 16.4632H43.996C42.9929 16.4632 42.1803 17.2763 42.1803 18.2789V26.9947V36.6789C42.1803 37.6818 42.9929 38.4947 43.996 38.4947C44.9991 38.4947 45.8118 37.6816 45.8118 36.6789V28.8104H53.6803C54.6834 28.8104 55.496 27.9973 55.496 26.9947V18.2789C55.496 17.2761 54.6832 16.4632 53.6803 16.4632ZM51.8643 25.1789H45.8118V20.0947H51.8643V25.1789Z" fill="black"/>
<path d="M85.6382 0H29.4696C28.4665 0 27.6539 0.813086 27.6539 1.81574V13.9211C27.6539 14.9239 28.4665 15.7368 29.4696 15.7368C30.4727 15.7368 31.2854 14.9237 31.2854 13.9211V3.63171H83.8222V52.2918L67.549 65.8526H47.5588L31.2854 52.2915V22.1525C31.2854 21.1497 30.4727 20.3368 29.4696 20.3368C28.4665 20.3368 27.6539 21.1499 27.6539 22.1525V53.1421C27.6539 53.681 27.8931 54.1922 28.307 54.5372L45.0854 68.5191V95.7528C45.0854 96.7557 45.8982 97.5685 46.9011 97.5685H48.959V113.184C48.959 114.187 49.7716 115 50.7747 115H64.3326C65.3357 115 66.1483 114.187 66.1483 113.184V97.5685H68.2062C69.2093 97.5685 70.022 96.7554 70.022 95.7528V68.5189L86.8003 54.537C87.2142 54.192 87.4534 53.681 87.4534 53.1419V1.81574C87.4539 0.813086 86.6413 0 85.6382 0ZM62.5171 111.369H52.5907V97.5685H62.5171V111.369ZM66.3907 93.9368H48.7171V69.4843H66.3907V93.9368Z" fill="black"/>
<path d="M77.8907 8.71574H37.2171C36.214 8.71574 35.4014 9.52883 35.4014 10.5315V44.4262C35.4014 45.429 36.2142 46.2419 37.2171 46.2419H77.8907C78.8938 46.2419 79.7065 45.4288 79.7065 44.4262V10.5315C79.7065 9.52883 78.8938 8.71574 77.8907 8.71574ZM76.075 42.6104H39.0328V12.3475H76.075V42.6104Z" fill="black"/>
<path d="M48.3539 48.4211C44.9497 48.4211 42.1803 51.1905 42.1803 54.5947C42.1803 57.9989 44.9497 60.7683 48.3539 60.7683C51.7581 60.7683 54.5275 57.9989 54.5275 54.5947C54.5275 51.1905 51.7581 48.4211 48.3539 48.4211ZM48.3539 57.1368C46.9521 57.1368 45.8118 55.9965 45.8118 54.5947C45.8118 53.1929 46.9521 52.0526 48.3539 52.0526C49.7557 52.0526 50.896 53.1929 50.896 54.5947C50.896 55.9965 49.7557 57.1368 48.3539 57.1368Z" fill="black"/>
<path d="M66.7539 48.4211C63.3497 48.4211 60.5803 51.1905 60.5803 54.5947C60.5803 57.9989 63.3497 60.7683 66.7539 60.7683C70.1581 60.7683 72.9275 57.9989 72.9275 54.5947C72.9275 51.1905 70.1581 48.4211 66.7539 48.4211ZM66.7539 57.1368C65.3521 57.1368 64.2118 55.9965 64.2118 54.5947C64.2118 53.1929 65.3521 52.0526 66.7539 52.0526C68.1557 52.0526 69.296 53.1929 69.296 54.5947C69.296 55.9965 68.1557 57.1368 66.7539 57.1368Z" fill="black"/>
<path d="M61.4275 79.5106C60.4244 79.5106 59.6118 80.3237 59.6118 81.3263V88.0053C59.6118 89.0082 60.4244 89.8211 61.4275 89.8211C62.4306 89.8211 63.2432 89.008 63.2432 88.0053V81.3263C63.2435 80.3235 62.4306 79.5106 61.4275 79.5106Z" fill="black"/>
<path d="M61.4275 72.6315C60.4244 72.6315 59.6118 73.4446 59.6118 74.4472V76.3589C59.6118 77.3618 60.4244 78.1746 61.4275 78.1746C62.4306 78.1746 63.2432 77.3615 63.2432 76.3589V74.4472C63.2435 73.4446 62.4306 72.6315 61.4275 72.6315Z" fill="black"/>
</svg>
