<svg width="224" height="74" viewBox="0 0 224 74" fill="none" xmlns="http://www.w3.org/2000/svg">
<path d="M0.767036 62.6605V52.3092H2.93318H5.09933V56.2526V60.1959H11.1164H17.1335V56.2526V52.3092H19.2996H21.4658V62.6605V73.0118H19.2996H17.1335V69.0684V65.1251H11.1164H5.09933V69.0684V73.0118H2.93318H0.767036V62.6605Z" fill="white"/>
<path d="M27.2422 62.6605V52.3092H36.6288H46.0154V54.5273V56.7455H39.0356H32.0558V58.4707V60.1466L37.7359 60.2945L43.3679 60.4424V62.6605V64.8786L37.7359 65.0265L32.0558 65.1744V66.8503V68.5755H39.0356H46.0154V70.7936V73.0118H36.6288H27.2422V62.6605Z" fill="white"/>
<path d="M59.975 69.167V65.3715L55.4021 59.0622C52.899 55.6118 50.8291 52.7035 50.8291 52.5557C50.8291 52.4078 51.9844 52.3092 53.3803 52.3092L55.8834 52.3585L58.2903 55.5625C62.2856 60.886 61.8042 60.8367 65.3182 56.3018L68.399 52.3092H70.9502C72.8757 52.3092 73.4052 52.4571 73.1645 52.95C72.9238 53.2457 70.8539 56.2033 68.5434 59.4072L64.3073 65.3222V69.167V73.0118H62.1412H59.975V69.167Z" fill="white"/>
<path d="M76.8228 62.6605V52.3092H85.3911C91.2638 52.3092 94.2964 52.5064 95.1147 52.95C98.2436 54.5766 98.2917 63.8928 95.211 65.5687C94.6334 65.8645 91.5045 66.1109 87.9424 66.1109H81.6365V69.5613V73.0118H79.2297H76.8228V62.6605ZM92.7079 59.2101V56.7455H87.1722H81.6365V59.2101V61.6747H87.1722H92.7079V59.2101Z" fill="white"/>
<path d="M101.854 62.6605V52.3092H104.261H106.667V60.4424V68.5755H114.369H122.071V70.7936V73.0118H111.963H101.854V62.6605Z" fill="white"/>
<path d="M126.885 63.9419C126.885 51.8161 126.259 52.6048 136.416 52.4076C143.973 52.2597 144.118 52.2597 145.466 53.4427L146.862 54.675L146.958 63.8433L147.006 73.0116H144.888C142.818 73.0116 142.77 72.9623 142.77 71.3357C142.77 70.4484 142.625 68.9697 142.481 68.1317L142.192 66.6037H136.705H131.217V69.8076V73.0116H129.051H126.885V63.9419ZM142.289 59.2099V56.7453H136.753H131.217V59.2099V61.6745H136.753H142.289V59.2099Z" fill="white"/>
<path d="M152.879 62.6605V52.3092H155.189H157.452L162.987 59.1115L168.523 65.8645L168.667 59.0622L168.812 52.3092H170.93H173.096V62.6605V73.0118H170.834L168.523 72.9625L162.891 66.0616L157.211 59.1115V66.0616V73.0118H155.045H152.879V62.6605Z" fill="white"/>
<path d="M186.093 64.8786V56.7455H182.001H177.91V54.5273V52.3092H188.018H198.127V54.5273V56.7455H194.276H190.425V64.8786V73.0118H188.259H186.093V64.8786Z" fill="white"/>
<path d="M204.337 71.5823C203.326 70.4979 202.941 69.6599 202.941 68.3783C202.941 66.6038 202.941 66.6038 205.107 66.6038C206.936 66.6038 207.273 66.7517 207.273 67.5897C207.273 68.5262 207.61 68.5755 213.049 68.5755H218.826V66.8996V65.2237L212.038 65.0265C205.299 64.8786 205.251 64.8786 204.096 63.4984C203.133 62.3154 202.941 61.5761 202.941 58.6679C202.941 55.4639 203.037 55.0695 204.337 53.7387L205.733 52.3092H213.049H220.366L221.762 53.7387C222.773 54.8231 223.158 55.661 223.158 56.9426C223.158 58.7171 223.158 58.7171 220.992 58.7171C219.163 58.7171 218.826 58.5693 218.826 57.7313C218.826 56.7948 218.489 56.7455 213.049 56.7455H207.273V58.4214V60.0973L214.06 60.2945C220.799 60.4424 220.847 60.4424 222.003 61.8225C222.965 63.0055 223.158 63.7449 223.158 66.6531C223.158 69.8571 223.062 70.2514 221.762 71.5823L220.366 73.0118H213.049H205.733L204.337 71.5823Z" fill="white"/>
<path d="M126.65 38.2722C123.607 37.1493 123.997 35.9329 127.898 34.6228C132.034 33.3128 132.58 33.4063 132.97 35.8393C133.126 36.9622 133.36 35.8393 133.36 33.2192C133.516 27.3239 132.736 25.6396 130.551 27.0432C127.04 29.289 124.075 27.4175 122.983 22.2709C122.515 20.0251 122.671 19.6508 123.997 19.6508C124.855 19.6508 126.572 19.3701 127.898 19.0893C130.005 18.6215 130.395 18.9022 131.565 21.5223C132.814 24.5167 132.814 24.6103 131.487 23.8617C128.366 22.458 127.742 22.3645 129.615 23.7681C132.97 26.201 133.594 25.9203 139.368 17.7793C142.177 13.9427 139.524 16.0014 136.481 20.1187L134.374 22.9259V19.6508C134.296 15.1592 135.077 14.0363 139.056 13.0069C140.928 12.5391 143.113 11.884 143.971 11.6033C145.298 11.0419 145.376 11.5097 145.064 16.2821C144.596 22.8323 143.269 24.7038 138.822 24.7038L135.467 24.7974L135.311 30.8798C135.233 34.2485 135.389 36.2136 135.623 35.3714C136.013 33.4063 136.715 33.3128 140.772 34.7164C144.049 35.7457 144.283 37.5236 141.241 38.4594C138.51 39.3951 129.615 39.3016 126.65 38.2722Z" fill="white"/>
<path d="M121.812 4.21089V0H133.906H146V4.21089V8.42177H133.906H121.812V4.21089Z" fill="white"/>
<path d="M80 25.1799V11.6799H100H120V25.1799V38.6799H100H80V25.1799Z" fill="white"/>
</svg>
